<svg xmlns="http://www.w3.org/2000/svg" xmlns:xlink="http://www.w3.org/1999/xlink" version="1.1" width="256" height="256" viewBox="0 0 256 256" xml:space="preserve">
<desc>Created with Fabric.js 1.7.22</desc>
<defs>
</defs>
<g transform="translate(128 128) scale(0.77 0.77)" style="">
	<g style="stroke: none; stroke-width: 0; stroke-dasharray: none; stroke-linecap: butt; stroke-linejoin: miter; stroke-miterlimit: 10; fill: none; fill-rule: nonzero; opacity: 1;" transform="translate(-165.15000000000003 -165.15000000000003) scale(3.67 3.67)" >
	<path d="M 87.238 10.93 H 2.762 C 1.237 10.93 0 12.167 0 13.692 v 52.744 c 0 1.525 1.237 2.762 2.762 2.762 h 36.979 v 7.158 h -8.564 c -0.829 0 -1.5 0.672 -1.5 1.5 s 0.671 1.5 1.5 1.5 h 27.646 c 0.828 0 1.5 -0.672 1.5 -1.5 s -0.672 -1.5 -1.5 -1.5 h -8.564 v -7.158 h 36.979 c 1.525 0 2.762 -1.237 2.762 -2.762 V 13.692 C 90 12.167 88.763 10.93 87.238 10.93 z M 87 66.198 H 3 V 13.93 h 84 V 66.198 z" style="stroke: #91eeda; stroke-width: 0.5; stroke-dasharray: none; stroke-linecap: butt; stroke-linejoin: miter; stroke-miterlimit: 10; fill: #4fe3c3; fill-rule: evenodd; opacity: 1;" transform=" matrix(1 0 0 1 0 0) " stroke-linecap="round" />
</g>
</g>
</svg>